# xmcd
#
# Track frame offsets: 
#        150
#        3806
#        36960
#        63938
#        82144
#        117179
#        142809
#        167240
#        196064
#
# Disc length: 3034 seconds
#
# Revision: 1
# Processed by: cddbd v1.5.2PL0 Copyright (c) Steve Scherf et al.
# Submitted via: ExactAudioCopyFreeDBPlugin 1.0
#
DISCID=6c0bd809
DTITLE=纯音 - DTSES瀞
DYEAR=2007
DGENRE=DTS ES
TTITLE0=声道测试
TTITLE1=汉宫秋月
TTITLE2=良宵
TTITLE3=小河淌水
TTITLE4=月夜
TTITLE5=流波曲
TTITLE6=月牙五更
TTITLE7=平湖秋月
TTITLE8=湖边春色
EXTD=
EXTT0=
EXTT1=
EXTT2=
EXTT3=
EXTT4=
EXTT5=
EXTT6=
EXTT7=
EXTT8=
PLAYORDER=
